<svg width="30" height="30" viewBox="0 0 30 30" fill="none" xmlns="http://www.w3.org/2000/svg">
<rect width="30" height="30" rx="2" fill="#7481FF"/>
<path d="M23.3845 11.2774C23.19 10.5544 22.62 9.98457 21.8972 9.7899C20.5767 9.42859 15.2945 9.42859 15.2945 9.42859C15.2945 9.42859 10.0125 9.42859 8.69196 9.7762C7.98304 9.97066 7.39915 10.5545 7.20469 11.2774C6.85718 12.5978 6.85718 15.3362 6.85718 15.3362C6.85718 15.3362 6.85718 18.0883 7.20469 19.395C7.39935 20.1178 7.96913 20.6877 8.69207 20.8823C10.0264 21.2438 15.2947 21.2438 15.2947 21.2438C15.2947 21.2438 20.5767 21.2438 21.8972 20.8961C22.6201 20.7016 23.19 20.1317 23.3847 19.4089C23.7321 18.0883 23.7321 15.3501 23.7321 15.3501C23.7321 15.3501 23.746 12.5978 23.3845 11.2774ZM13.6127 17.866V12.8064L18.0051 15.3362L13.6127 17.866Z" fill="white"/>
</svg>
